<?xml version="1.0" standalone="no"?>
<!DOCTYPE svg PUBLIC "-//W3C//DTD SVG 20010904//EN"
 "http://www.w3.org/TR/2001/REC-SVG-20010904/DTD/svg10.dtd">
<svg version="1.0" xmlns="http://www.w3.org/2000/svg"
 width="2740.000000pt" height="2644.000000pt" viewBox="0 0 2740.000000 2644.000000"
 preserveAspectRatio="xMidYMid meet">
<metadata>
Created by potrace 1.16, written by Peter Selinger 2001-2019
</metadata>
<g transform="translate(0.000000,2644.000000) scale(0.100000,-0.100000)"
fill="#000000" stroke="none">
<path d="M13385 26296 c-1755 -808 -3296 -1634 -4822 -2582 -2115 -1315 -4116
-2830 -5908 -4473 -580 -532 -1555 -1493 -2042 -2011 -199 -212 -541 -584
-596 -647 -17 -20 -17 -33 18 -379 533 -5365 2076 -10129 4758 -14689 196
-334 418 -698 436 -716 9 -9 45 -21 81 -28 809 -145 1322 -229 1933 -316 2862
-407 5731 -540 8627 -400 1951 95 3931 316 5870 656 190 34 362 63 382 66 20
3 44 13 51 22 40 46 522 851 759 1266 367 644 587 1057 931 1745 745 1491
1317 2870 1838 4430 857 2572 1398 5171 1674 8054 25 258 25 269 8 289 -10 12
-118 132 -239 267 -774 858 -1650 1740 -2524 2541 -2954 2707 -6323 4934
-10105 6681 -233 108 -814 369 -818 367 -1 0 -141 -64 -312 -143z m1000 -609
c1311 -607 2609 -1293 3815 -2017 3223 -1934 6053 -4249 8584 -7024 l199 -218
-22 -226 c-537 -5466 -2156 -10337 -4954 -14908 -77 -126 -90 -142 -119 -148
-220 -45 -1220 -205 -1753 -280 -1680 -237 -3132 -364 -5015 -438 -443 -18
-2485 -18 -2935 0 -1941 75 -3495 217 -5235 478 -424 63 -1263 203 -1442 240
-24 5 -54 49 -211 312 -2529 4221 -4067 8634 -4716 13527 -60 448 -161 1348
-161 1426 0 47 1069 1158 1720 1788 3256 3148 7018 5703 11309 7681 l253 117
207 -92 c113 -51 328 -149 476 -218z"/>
<path d="M13380 25501 c-1369 -642 -2642 -1318 -3860 -2049 -3219 -1932 -6054
-4220 -8579 -6925 l-194 -208 7 -82 c11 -133 64 -610 102 -912 271 -2179 718
-4252 1349 -6260 807 -2565 1915 -5022 3336 -7401 137 -229 139 -231 176 -237
21 -3 225 -37 453 -76 2069 -351 4005 -542 6225 -613 490 -15 2032 -15 2510 0
2296 76 4234 266 6430 633 198 33 367 62 377 65 9 3 102 147 206 322 2495
4163 4014 8600 4621 13502 35 279 104 905 113 1023 2 36 -5 45 -182 239 -1325
1448 -2778 2803 -4320 4029 -2460 1956 -5150 3596 -8139 4960 -167 77 -306
139 -310 138 -3 0 -148 -67 -321 -148z m720 -294 c3918 -1810 7385 -4151
10407 -7025 580 -551 1354 -1342 1824 -1863 l76 -84 -9 -85 c-533 -5209 -2040
-9817 -4643 -14200 -86 -146 -165 -272 -174 -282 -19 -19 -588 -116 -1281
-217 -4613 -676 -9236 -649 -13750 79 -463 75 -715 121 -726 133 -17 18 -238
392 -441 747 -1680 2939 -2892 6030 -3647 9303 -295 1276 -525 2615 -680 3957
-57 489 -62 553 -45 578 23 32 276 299 666 703 546 565 1202 1198 1818 1754
2928 2640 6253 4832 9969 6571 230 107 241 111 271 98 17 -7 182 -82 365 -167z"/>
<path d="M13540 21998 c0 -24 -9 -299 -20 -612 -11 -314 -17 -573 -13 -577 5
-3 186 -11 403 -18 217 -6 425 -14 461 -17 l66 -6 7 103 c3 56 4 104 1 107 -3
3 -157 11 -342 17 -186 7 -340 13 -342 14 -5 1 8 324 13 329 2 2 140 -2 306
-8 166 -6 303 -10 305 -8 1 2 5 49 7 104 l5 102 -166 6 c-91 3 -230 9 -308 12
l-143 6 0 122 c0 66 4 127 9 135 7 11 60 11 331 2 177 -7 324 -11 326 -9 1 2
6 49 10 106 6 96 6 102 -12 102 -10 0 -199 7 -419 15 -220 8 -419 15 -442 15
l-43 0 0 -42z"/>
<path d="M12525 21994 c-169 -35 -321 -150 -390 -295 -50 -107 -65 -177 -65
-304 0 -333 171 -579 450 -646 86 -21 260 -17 355 9 138 36 292 118 356 188
l27 29 -20 240 c-11 132 -21 241 -23 243 -3 3 -528 -39 -532 -42 -5 -4 11
-186 17 -196 6 -9 39 -9 139 0 73 6 135 9 138 6 3 -3 8 -39 11 -79 l4 -74 -34
-26 c-18 -14 -65 -41 -103 -59 -95 -44 -211 -51 -299 -18 -149 57 -230 212
-229 445 0 141 22 207 97 281 66 66 141 96 246 97 116 1 206 -47 251 -135 l19
-36 87 24 c49 14 100 27 116 31 15 3 30 10 33 15 11 18 -57 138 -106 188 -55
57 -146 104 -229 120 -75 14 -233 11 -316 -6z"/>
<path d="M14810 21971 c0 -6 -36 -282 -80 -613 -44 -331 -79 -602 -77 -604 4
-4 240 -34 243 -31 2 2 18 115 37 252 l33 250 40 -2 c21 -2 61 -8 88 -14 80
-19 110 -58 244 -326 l120 -239 142 -18 c78 -9 143 -16 145 -14 6 5 -147 336
-191 415 -20 36 -60 90 -88 120 l-52 53 36 6 c90 14 135 29 178 58 101 68 148
171 140 309 -10 172 -98 267 -288 311 -36 8 -186 31 -335 50 -148 20 -285 38
-302 41 -20 4 -33 2 -33 -4z m602 -291 c20 -5 50 -26 67 -45 26 -30 31 -44 31
-86 0 -110 -51 -159 -165 -159 -65 1 -342 33 -349 41 -4 4 32 277 38 295 4 11
306 -25 378 -46z"/>
<path d="M11205 21755 c-242 -56 -439 -106 -439 -111 8 -48 269 -1181 274
-1187 4 -5 210 38 459 95 411 94 451 105 451 123 -1 24 -36 174 -42 181 -3 2
-153 -30 -333 -71 -181 -41 -332 -72 -336 -68 -4 5 -22 77 -42 161 -24 106
-31 155 -23 157 6 3 139 34 295 69 156 36 286 67 289 70 5 6 -27 174 -37 192
-4 7 -96 -10 -276 -52 -148 -34 -284 -65 -301 -68 l-30 -6 -29 130 c-15 72
-26 132 -24 134 2 2 105 26 229 54 124 28 267 61 319 73 l93 21 -6 32 c-19 99
-39 176 -45 175 -3 -1 -204 -47 -446 -104z"/>
<path d="M16145 21747 c-24 -93 -273 -1182 -271 -1184 5 -5 237 -55 240 -52
11 12 276 1193 269 1199 -4 4 -30 13 -58 18 -27 6 -78 17 -113 26 -61 14 -62
14 -67 -7z"/>
<path d="M10284 21504 l-102 -35 54 -167 c29 -92 87 -268 128 -391 51 -152 70
-219 58 -209 -9 9 -165 140 -347 293 -181 153 -339 286 -351 296 -20 18 -23
18 -135 -20 -63 -21 -113 -43 -112 -47 4 -24 376 -1150 382 -1157 6 -6 206 55
217 66 2 2 -41 138 -96 303 -143 427 -153 460 -132 442 9 -8 171 -144 360
-302 l343 -287 112 37 c62 20 115 39 119 43 10 8 -375 1164 -388 1167 -5 1
-55 -13 -110 -32z"/>
<path d="M17035 20918 c-119 -310 -219 -568 -221 -574 -4 -9 360 -155 591
-236 121 -42 218 -48 297 -18 77 29 150 96 188 174 63 127 48 243 -43 342 -46
50 -47 54 -25 54 37 0 144 57 174 93 15 18 38 56 52 86 21 46 24 64 20 130 -8
132 -67 211 -210 280 -90 43 -572 231 -593 231 -7 0 -102 -232 -230 -562z
m547 222 c174 -69 210 -89 226 -125 27 -59 5 -148 -46 -181 -49 -32 -112 -23
-284 42 -87 32 -158 64 -158 69 0 20 93 255 101 255 5 0 77 -27 161 -60z
m-187 -455 c175 -69 233 -101 262 -144 65 -97 -14 -241 -132 -241 -38 0 -395
127 -398 142 -4 14 109 298 118 298 5 0 73 -25 150 -55z"/>
<path d="M8515 20781 l-140 -80 -79 -351 c-44 -193 -83 -353 -87 -355 -4 -3
-61 91 -128 209 -67 117 -127 220 -134 229 -11 15 -23 10 -119 -44 l-107 -61
29 -51 c17 -29 153 -267 303 -531 149 -263 277 -480 283 -483 8 -3 189 93 213
113 2 1 -38 76 -89 164 l-93 162 33 126 c18 70 36 132 39 138 4 8 109 -48 290
-152 156 -90 288 -164 293 -164 17 0 278 154 270 161 -4 3 -181 96 -394 205
-250 128 -388 204 -388 214 0 8 36 153 79 323 43 169 76 307 72 307 -3 0 -69
-36 -146 -79z"/>
<path d="M18355 20365 c-269 -238 -490 -437 -492 -441 -1 -5 49 -36 112 -68
l114 -59 109 102 110 101 216 -112 216 -112 0 -35 c-1 -20 -7 -88 -15 -151 -7
-63 -13 -115 -12 -116 79 -46 239 -120 242 -111 4 12 125 1280 125 1304 0 7
-53 39 -117 72 l-118 58 -490 -432z m470 78 c-3 -16 -16 -120 -30 -232 -13
-112 -26 -205 -27 -207 -7 -6 -288 142 -285 150 4 13 330 315 339 316 4 0 5
-12 3 -27z"/>
<path d="M19430 19771 c-195 -269 -356 -494 -358 -500 -3 -8 153 -131 176
-138 4 -2 111 141 237 316 190 263 230 314 232 292 2 -14 -12 -223 -30 -465
l-33 -438 71 -52 c38 -28 84 -62 102 -74 l32 -22 360 497 c198 274 361 500
361 503 -1 9 -168 125 -182 125 -7 0 -118 -145 -246 -323 -129 -178 -235 -322
-237 -320 -1 2 12 194 31 428 18 234 34 447 35 475 l3 49 -93 68 c-52 37 -97
68 -100 68 -4 0 -167 -220 -361 -489z"/>
<path d="M7303 20042 c-51 -37 -91 -70 -90 -74 2 -7 534 -747 665 -926 l53
-72 72 50 c40 28 85 61 101 73 l29 24 -358 496 c-197 273 -364 497 -369 496
-6 0 -53 -31 -103 -67z"/>
<path d="M13090 19999 c-251 -11 -579 -36 -850 -64 -334 -35 -297 -22 -304
-108 -6 -68 -42 -844 -69 -1476 l-12 -284 -184 -48 c-713 -189 -1402 -475
-2019 -839 -122 -72 -123 -72 -144 -54 -12 11 -162 147 -333 304 -609 560
-994 910 -1001 910 -11 0 -367 -288 -544 -440 -480 -412 -988 -915 -1400
-1385 -140 -159 -351 -412 -468 -561 l-80 -100 86 -95 c282 -311 709 -778 910
-996 l233 -253 -80 -133 c-374 -622 -666 -1316 -861 -2045 -28 -102 -51 -187
-53 -189 -2 -2 -262 -15 -578 -28 -719 -31 -1222 -55 -1226 -59 -6 -5 -52
-451 -68 -646 -53 -670 -58 -1382 -15 -2030 20 -298 74 -828 86 -839 3 -3 116
-11 252 -17 217 -11 1310 -60 1481 -67 l64 -2 29 -115 c184 -739 471 -1439
866 -2113 l75 -128 -40 -42 c-48 -50 -755 -822 -972 -1062 -85 -93 -166 -182
-179 -197 l-25 -27 155 -193 c349 -433 587 -698 1013 -1124 467 -467 691 -666
1282 -1142 l41 -33 399 363 c219 199 531 485 695 635 l296 273 172 0 c148 0
171 -2 166 -15 -3 -8 -44 -78 -91 -156 l-86 -141 83 6 c128 10 1078 51 2303
101 611 25 1221 50 1357 56 187 9 309 9 495 0 137 -6 748 -31 1358 -56 1225
-50 2175 -91 2303 -101 l83 -6 -86 141 c-47 78 -88 148 -91 156 -5 13 19 15
172 15 l179 -1 365 -335 c468 -430 1059 -968 1068 -972 4 -1 567 558 1250
1241 l1244 1244 -218 239 c-120 131 -392 428 -604 658 -212 230 -398 435 -414
454 l-30 35 19 31 c434 739 737 1467 912 2191 15 60 28 112 29 113 1 2 148 10
326 18 754 32 1457 64 1506 70 l52 5 0 1760 0 1759 -22 0 c-13 0 -212 9 -443
20 -231 11 -645 29 -920 41 -275 11 -501 22 -503 23 -1 2 -24 86 -52 188 -194
725 -485 1417 -859 2043 -39 65 -70 122 -69 126 2 4 145 161 319 350 512 558
949 1040 949 1047 0 4 -559 566 -1242 1249 l-1243 1242 -390 -356 c-214 -196
-531 -486 -702 -644 l-313 -288 -124 74 c-607 361 -1340 666 -2036 846 -91 23
-168 45 -171 48 -4 3 -17 240 -29 526 -32 779 -58 1296 -64 1302 -18 19 -788
86 -1176 103 -265 11 -927 11 -1190 -1z m885 -4003 c379 -12 841 -84 1245
-195 672 -185 1335 -509 1900 -930 303 -226 689 -586 924 -862 816 -961 1283
-2109 1367 -3359 15 -220 6 -730 -16 -935 -47 -451 -130 -831 -270 -1250 -382
-1143 -1101 -2117 -2095 -2837 -169 -123 -564 -368 -574 -357 -2 2 -22 36 -45
76 -48 81 -30 73 -241 108 -52 9 -98 19 -101 23 -3 4 -50 105 -104 225 l-98
217 -116 0 c-167 0 -511 -18 -686 -35 -518 -52 -870 -167 -1098 -358 -30 -25
-48 -35 -44 -24 4 10 59 167 124 350 64 183 118 333 119 335 1 2 64 12 140 22
76 11 146 22 155 25 12 4 20 -6 33 -40 10 -24 37 -67 62 -94 114 -127 292
-185 566 -184 123 1 141 3 174 23 25 14 46 19 62 15 62 -15 182 85 228 190
l27 62 136 -5 c151 -5 275 9 304 36 11 10 31 15 48 14 36 -4 85 25 134 79 43
48 62 89 76 167 6 30 21 69 34 86 13 17 28 43 33 57 10 24 16 26 89 33 93 8
179 29 202 50 10 9 29 16 44 16 70 0 164 125 171 227 2 30 13 67 25 86 12 19
24 48 27 64 5 27 11 31 80 47 87 20 164 51 164 66 0 5 11 10 23 10 30 0 87 55
113 106 10 22 19 65 21 99 1 33 9 77 17 97 9 21 16 48 16 61 0 20 11 29 65 52
36 15 71 35 78 44 7 9 24 22 39 28 14 7 39 33 54 60 25 42 29 59 32 148 6 189
-2 167 79 221 40 26 75 56 78 66 4 9 14 20 25 23 40 13 68 110 49 176 -7 24
-13 71 -14 104 -1 56 1 61 34 90 47 40 111 108 111 118 0 4 10 21 21 36 29 39
29 117 1 163 -32 53 -30 70 14 129 57 75 84 123 84 147 0 11 5 24 11 27 6 4 9
33 8 68 -3 53 1 68 24 102 71 107 107 277 73 344 -16 30 -71 81 -88 81 -5 0
-19 12 -31 26 -22 28 -89 63 -122 64 -42 0 -96 -22 -130 -54 -19 -19 -49 -39
-65 -46 -41 -17 -87 -71 -101 -121 -10 -32 -10 -59 0 -126 l12 -85 -39 -34
c-57 -48 -76 -111 -77 -250 -1 -105 -2 -113 -27 -142 -60 -72 -108 -211 -108
-314 0 -32 -4 -58 -10 -58 -17 0 -105 -97 -139 -154 -40 -66 -81 -176 -81
-214 0 -17 -8 -32 -23 -42 -13 -8 -40 -26 -61 -39 -50 -32 -158 -169 -200
-255 -31 -63 -40 -74 -88 -98 -99 -52 -243 -199 -297 -305 -19 -38 -25 -43
-55 -43 -106 0 -362 -179 -457 -320 l-34 -49 -66 -1 c-41 0 -72 -5 -85 -15
-10 -8 -30 -15 -44 -15 -46 0 -268 -139 -334 -208 l-29 -31 -31 24 c-108 82
-227 86 -401 12 -223 -94 -427 -263 -505 -418 -21 -44 -42 -102 -46 -129 -4
-33 -12 -51 -23 -54 -36 -11 -233 -38 -238 -33 -3 3 59 185 136 404 78 220
141 413 141 430 0 18 -29 364 -65 770 -36 406 -64 751 -63 766 3 26 10 30 148
76 421 141 761 355 1058 666 395 413 640 943 707 1525 l7 56 64 23 c36 13 104
51 152 86 110 79 155 102 249 126 174 44 363 5 503 -105 125 -98 247 -144 400
-153 147 -8 292 30 403 105 30 20 83 56 117 80 70 47 156 77 249 88 l61 7 0
45 0 45 -72 -6 c-72 -6 -174 -34 -233 -64 -16 -8 -67 -42 -112 -75 -108 -77
-175 -107 -285 -126 -82 -13 -101 -13 -184 0 -109 18 -194 55 -279 122 -125
98 -263 146 -426 146 -166 0 -281 -40 -434 -151 -69 -49 -139 -89 -160 -89 -3
0 -5 53 -5 118 l0 117 71 29 c39 15 103 53 142 83 180 136 365 173 565 112 71
-22 129 -54 208 -115 239 -183 588 -178 834 11 96 74 197 115 318 130 l52 7 0
44 0 44 -37 0 c-107 -1 -283 -65 -368 -134 -107 -88 -215 -132 -347 -142 -140
-10 -303 38 -402 120 -118 96 -248 146 -401 153 -172 8 -302 -30 -445 -133
-50 -36 -114 -76 -143 -90 l-52 -24 -7 43 c-4 23 -14 89 -23 147 -32 211 -102
444 -199 658 -25 56 -46 105 -46 110 0 4 321 328 712 719 l713 713 -560 560
-560 560 -735 -735 c-801 -799 -771 -773 -908 -795 -103 -17 -198 0 -500 89
-275 82 -335 94 -472 94 -137 0 -197 -12 -472 -94 -302 -89 -397 -106 -500
-89 -137 22 -107 -4 -908 795 l-735 735 -560 -560 -560 -560 713 -713 c391
-391 712 -715 712 -719 0 -5 -21 -54 -46 -110 -97 -214 -167 -447 -199 -658
-9 -58 -19 -124 -23 -147 l-7 -43 -52 24 c-29 14 -93 54 -143 90 -143 103
-273 141 -445 133 -153 -7 -283 -57 -401 -153 -99 -82 -262 -130 -402 -120
-132 10 -240 54 -347 142 -85 69 -261 133 -367 134 l-38 0 0 -44 0 -44 53 -7
c120 -15 221 -56 317 -130 246 -189 595 -194 834 -11 79 61 137 93 208 115
200 61 385 24 565 -112 39 -30 103 -68 142 -83 l71 -29 0 -117 c0 -65 -2 -118
-5 -118 -21 0 -91 40 -160 89 -153 111 -268 151 -434 151 -163 0 -301 -48
-426 -146 -84 -66 -169 -103 -277 -121 -81 -14 -101 -14 -183 -1 -112 18 -179
48 -288 126 -45 33 -95 67 -112 75 -59 30 -161 58 -232 64 l-73 6 0 -45 0 -45
61 -7 c90 -11 178 -41 241 -83 30 -21 83 -57 118 -80 118 -80 260 -118 410
-110 153 9 275 55 400 153 140 110 329 149 503 105 94 -24 139 -47 249 -126
48 -35 116 -73 152 -86 l64 -23 7 -56 c67 -582 310 -1106 705 -1523 295 -311
638 -526 1060 -668 138 -46 145 -50 148 -76 1 -15 -27 -360 -63 -766 -36 -406
-65 -752 -65 -770 0 -17 63 -210 141 -430 77 -219 139 -400 136 -403 -7 -8
-297 45 -442 81 -213 53 -411 119 -406 136 2 8 13 46 24 84 14 50 20 102 20
185 1 131 -13 194 -69 301 -39 73 -139 199 -158 199 -18 0 -75 -131 -92 -210
-29 -140 -8 -296 59 -432 18 -38 32 -68 30 -68 -2 0 -55 23 -119 52 -89 40
-114 55 -110 67 3 9 19 56 37 105 80 230 34 474 -122 653 l-28 33 -19 -28
c-31 -44 -79 -143 -96 -200 -37 -126 -27 -287 27 -420 13 -34 22 -62 20 -62
-4 0 -167 95 -181 106 -2 1 11 41 27 89 85 239 53 459 -94 653 -26 35 -52 61
-59 59 -21 -7 -95 -169 -112 -245 -23 -104 -15 -250 20 -349 13 -40 23 -73 20
-73 -2 0 -36 24 -75 53 -78 58 -76 47 -35 164 73 204 50 416 -64 585 -26 41
-58 82 -70 93 -22 20 -22 20 -37 0 -27 -36 -82 -159 -98 -220 -20 -80 -18
-223 5 -310 10 -38 16 -72 15 -73 -2 -2 -39 31 -83 73 l-80 76 38 82 c21 45
46 111 56 147 21 80 23 235 5 310 -17 70 -69 183 -110 238 l-32 43 -33 -41
c-105 -133 -157 -338 -126 -500 6 -29 8 -55 6 -57 -2 -2 -40 41 -84 97 l-81
101 43 62 c96 137 139 263 140 402 0 50 -6 115 -13 145 -16 68 -70 200 -81
200 -16 0 -116 -111 -149 -165 -59 -98 -83 -177 -90 -304 l-6 -115 -39 65
c-22 35 -45 73 -53 84 -11 19 -8 27 29 75 57 77 114 198 134 288 31 138 6 310
-63 446 l-15 28 -50 -48 c-106 -103 -182 -259 -195 -401 l-6 -66 -17 34 c-9
19 -27 60 -40 91 l-23 57 39 43 c191 207 244 478 142 727 l-14 34 -61 -51
c-106 -89 -190 -226 -217 -354 l-13 -63 -8 37 c-4 21 -2 66 4 101 43 246 -41
488 -220 637 -33 28 -64 50 -68 50 -27 0 -64 -156 -64 -270 -1 -167 56 -309
183 -460 71 -83 89 -116 48 -86 -129 94 -218 131 -358 148 -124 15 -126 14
-94 -72 74 -207 222 -350 429 -416 44 -14 101 -28 127 -31 l46 -6 31 -69 c17
-38 27 -68 23 -66 -4 2 -40 20 -79 41 -40 20 -101 44 -135 52 -71 17 -264 20
-273 5 -3 -5 13 -47 36 -92 59 -114 174 -230 279 -281 90 -44 213 -77 289 -77
31 0 61 -4 66 -8 11 -7 45 -58 45 -66 0 -3 -24 5 -52 18 -29 13 -78 29 -108
37 -69 17 -217 17 -293 0 l-57 -13 27 -51 c16 -29 64 -88 108 -133 136 -137
280 -194 489 -194 l111 0 41 -53 40 -52 -65 17 c-91 23 -219 23 -317 -2 -43
-11 -82 -24 -87 -29 -12 -12 78 -126 141 -177 144 -117 319 -166 520 -143 l95
10 44 -43 44 -44 -118 4 c-89 3 -134 0 -183 -13 -72 -18 -210 -81 -210 -95 0
-13 94 -92 154 -128 169 -103 396 -119 599 -42 l49 19 46 -34 45 -35 -94 0
c-52 0 -122 -7 -154 -15 -82 -21 -188 -75 -259 -131 -55 -45 -57 -48 -40 -61
37 -28 180 -91 234 -104 75 -18 221 -16 300 5 70 18 193 73 241 106 l29 21 65
-39 65 -39 -74 -6 c-99 -9 -218 -48 -292 -97 -59 -39 -194 -171 -194 -190 0
-5 37 -21 83 -36 70 -24 99 -28 202 -28 104 0 131 3 201 27 87 29 177 82 262
155 l54 45 79 -38 c43 -21 77 -40 75 -43 -2 -2 -35 -10 -73 -17 -149 -31 -307
-138 -392 -266 -23 -34 -41 -65 -41 -69 0 -19 102 -35 225 -35 110 0 140 4
195 23 102 36 198 99 281 183 l77 77 81 -29 c195 -69 510 -144 740 -177 l123
-18 124 -349 c68 -193 124 -352 124 -353 0 -2 -22 15 -49 37 -225 189 -580
304 -1096 356 -175 17 -519 35 -686 35 l-116 0 -98 -217 c-54 -120 -101 -221
-104 -225 -3 -4 -49 -14 -101 -23 -211 -35 -193 -27 -241 -108 -23 -40 -43
-74 -45 -76 -10 -11 -405 234 -574 357 -994 720 -1713 1694 -2095 2837 -140
419 -223 799 -270 1250 -22 205 -31 715 -16 935 84 1250 551 2398 1367 3359
235 276 621 636 924 862 931 693 2054 1089 3200 1128 113 4 234 6 270 4 36 -1
137 -5 225 -7z m-154 -4420 c94 -20 162 -52 243 -114 222 -168 495 -200 729
-84 43 21 80 35 83 31 2 -4 7 -48 11 -98 7 -104 6 -107 -74 -157 -177 -114
-440 -119 -610 -12 -29 18 -86 56 -128 85 -47 32 -107 63 -158 80 -73 24 -97
27 -217 27 -120 0 -144 -3 -217 -27 -51 -17 -111 -48 -158 -80 -202 -139 -262
-162 -425 -161 -121 1 -222 29 -313 88 -80 50 -81 53 -74 157 4 50 9 94 11 98
3 4 40 -10 83 -31 234 -116 507 -84 729 84 146 111 312 150 485 114z m10 -340
c79 -17 174 -63 249 -121 126 -98 249 -139 420 -139 128 -1 218 21 319 75 30
16 58 29 61 29 11 0 -8 -106 -34 -200 -133 -469 -549 -813 -1042 -860 -559
-53 -1096 317 -1250 860 -26 94 -45 200 -34 200 3 0 31 -13 61 -29 101 -54
191 -76 319 -75 171 0 294 41 420 139 152 117 329 159 511 121z m4205 -1392
c18 -9 36 -25 40 -36 3 -11 25 -28 49 -38 56 -24 87 -79 53 -93 -7 -3 -37 -14
-65 -26 l-53 -21 -20 40 c-38 74 -80 76 -131 5 l-31 -43 -56 23 c-32 13 -58
30 -60 38 -4 20 51 73 84 81 15 4 36 19 47 33 20 25 69 52 95 53 8 0 29 -7 48
-16z m-8298 -191 c64 -121 86 -267 61 -412 l-12 -66 -51 57 c-149 165 -203
369 -150 572 l7 30 56 -60 c31 -33 71 -87 89 -121z m8239 -196 c12 -11 25 -32
28 -48 4 -16 10 -29 14 -29 22 0 61 -55 61 -86 0 -37 8 -34 -112 -38 -18 -1
-24 7 -30 38 -5 22 -13 45 -19 53 -19 22 -63 15 -99 -17 -19 -16 -39 -29 -43
-30 -5 0 -28 16 -53 36 -35 29 -42 39 -34 54 12 22 70 50 103 50 13 0 30 7 37
15 16 20 68 34 100 28 14 -3 35 -15 47 -26z m-7831 -64 c43 -181 -14 -377
-155 -538 -19 -22 -38 -41 -42 -43 -14 -6 -32 161 -26 242 7 93 23 148 65 233
30 58 129 179 140 169 2 -3 11 -31 18 -63z m-676 -218 c144 -38 292 -155 373
-295 41 -72 45 -90 19 -90 -38 0 -170 43 -237 78 -114 59 -239 198 -270 300
-6 20 -3 22 27 22 18 0 58 -7 88 -15z m8423 -117 c21 -11 47 -66 47 -99 0 -11
9 -32 20 -46 13 -17 20 -41 20 -69 l0 -44 -57 6 c-84 8 -83 8 -83 63 0 80 -46
104 -116 60 -19 -11 -38 -18 -44 -14 -14 8 -70 91 -70 103 0 21 70 44 111 37
22 -4 45 -3 52 3 26 22 78 21 120 0z m-7562 -168 c38 -151 12 -317 -72 -456
-42 -68 -76 -111 -83 -104 -12 12 -37 130 -43 201 -6 84 8 183 38 264 24 66
118 200 130 188 5 -5 19 -47 30 -93z m7246 -252 c15 -6 54 -10 86 -9 40 2 66
-3 84 -14 35 -23 56 -78 48 -127 -4 -21 -2 -44 3 -51 20 -24 23 -75 8 -111
l-15 -36 -68 26 c-37 14 -70 27 -72 29 -2 2 2 26 9 54 22 91 -9 121 -99 94
-29 -8 -54 -13 -55 -11 -5 6 -56 129 -56 134 0 8 63 33 82 34 9 0 29 -5 45
-12z m-7810 -28 c118 -41 240 -138 317 -253 l34 -52 -46 -3 c-111 -8 -298 64
-398 152 -48 42 -115 130 -131 172 -6 16 1 17 78 11 46 -3 112 -15 146 -27z
m808 -76 c40 -127 36 -267 -9 -388 -28 -75 -84 -172 -114 -199 -18 -17 -20
-16 -36 40 -23 75 -32 251 -17 324 6 30 25 84 42 119 31 66 95 160 108 160 5
0 16 -25 26 -56z m6804 -323 c19 -14 40 -21 52 -18 29 8 89 -12 114 -38 36
-35 46 -87 30 -143 -11 -35 -12 -55 -4 -82 13 -43 -1 -108 -30 -134 -18 -16
-22 -15 -87 25 -38 23 -71 43 -73 45 -2 2 6 27 18 55 25 61 27 102 6 119 -10
8 -41 12 -84 11 -78 -2 -72 -9 -92 98 -11 59 -11 65 7 78 27 21 104 12 143
-16z m-7359 -57 c98 -28 190 -83 273 -166 42 -42 77 -82 77 -89 0 -8 -31 -10
-117 -7 -143 6 -232 33 -336 104 -61 42 -157 142 -157 164 0 23 170 19 260 -6z
m809 -32 c87 -173 87 -363 0 -548 -17 -35 -34 -64 -38 -64 -15 0 -69 136 -85
213 -20 94 -20 152 -1 242 12 58 79 215 91 215 2 0 17 -26 33 -58z m6224 -266
c18 -7 43 -25 56 -40 18 -19 34 -26 60 -26 110 0 176 -131 121 -240 -15 -29
-19 -50 -14 -79 3 -22 1 -55 -6 -75 -13 -39 -55 -96 -72 -96 -8 0 -77 54 -146
115 -10 9 -5 25 28 81 43 73 44 95 8 127 -15 12 -38 17 -88 17 l-67 0 -6 68
c-11 116 -9 150 11 155 35 9 84 7 115 -7z m-5900 -88 c58 -97 79 -176 80 -293
0 -55 -5 -120 -12 -145 -23 -85 -54 -161 -65 -157 -19 6 -94 167 -110 238 -29
125 -17 255 34 374 11 25 23 45 28 45 4 0 25 -28 45 -62z m-781 -79 c81 -17
205 -81 282 -146 38 -32 71 -63 73 -69 6 -18 -33 -24 -147 -24 -120 0 -195 16
-287 60 -63 31 -204 152 -191 165 23 24 183 32 270 14z m1113 -152 c96 -144
116 -338 55 -523 -36 -107 -40 -108 -89 -16 -95 183 -106 369 -34 535 14 31
27 57 29 57 2 0 20 -24 39 -53z m5132 -76 c17 -11 41 -33 53 -50 15 -19 35
-32 59 -36 53 -10 103 -41 131 -82 20 -29 25 -49 25 -98 0 -53 -5 -70 -33
-115 -21 -33 -31 -61 -28 -74 11 -41 -14 -114 -56 -160 -22 -25 -46 -46 -53
-46 -13 0 -157 142 -163 161 -2 5 15 34 37 64 53 70 65 98 57 130 -8 32 -48
50 -134 60 l-64 7 7 122 c4 66 9 124 12 129 9 16 118 7 150 -12z m-4759 -133
c59 -99 75 -160 76 -293 1 -106 -2 -130 -27 -205 -38 -115 -42 -121 -67 -90
-35 44 -82 172 -98 263 -13 77 -13 97 1 175 14 85 57 202 74 202 5 0 23 -24
41 -52z m1894 -28 c50 -14 97 -55 119 -105 61 -133 -52 -281 -199 -261 -193
26 -220 296 -35 361 47 17 67 18 115 5z m-2910 -55 c78 -21 153 -54 217 -98
l52 -34 -39 -16 c-104 -41 -248 -56 -358 -36 -64 11 -201 73 -249 113 l-30 25
40 17 c107 46 256 57 367 29z m1368 -97 c89 -121 130 -280 111 -429 -6 -47
-19 -110 -29 -139 l-19 -54 -33 44 c-89 121 -137 278 -127 414 6 80 41 206 57
206 5 0 22 -19 40 -42z m3817 -53 c46 -19 69 -40 99 -87 15 -24 32 -38 45 -38
64 0 152 -83 168 -160 16 -72 -21 -186 -73 -230 -11 -8 -16 -30 -16 -64 0 -38
-8 -64 -30 -103 -27 -48 -89 -103 -115 -103 -6 0 -48 47 -94 105 l-82 106 60
68 c73 83 84 106 66 148 -14 33 -18 35 -140 64 -27 6 -53 15 -57 18 -7 6 17
242 28 279 5 17 96 15 141 -3z m-4707 -188 c25 -8 65 -23 88 -32 l44 -18 -49
-30 c-121 -76 -286 -115 -412 -97 -72 10 -211 57 -211 70 0 23 135 94 218 115
70 18 256 13 322 -8z m4016 2 c48 -23 101 -78 115 -119 7 -20 20 -29 54 -38
55 -15 122 -73 146 -127 42 -91 13 -220 -65 -294 -31 -30 -36 -41 -36 -80 0
-55 -26 -114 -70 -165 -37 -42 -102 -79 -122 -70 -7 3 -50 61 -94 128 l-82
122 84 86 c67 67 84 91 84 114 0 52 -23 71 -130 104 -66 20 -100 36 -100 45 0
8 11 68 25 132 13 65 26 132 29 148 2 17 5 31 5 33 1 1 27 2 58 2 37 0 72 -7
99 -21z m-3605 -250 c38 -7 69 -15 69 -20 0 -16 -102 -96 -169 -132 -124 -67
-254 -89 -386 -66 -96 17 -99 22 -35 80 132 120 321 170 521 138z m487 -208
c20 -12 -132 -150 -214 -193 -38 -20 -97 -43 -130 -52 -63 -16 -208 -20 -254
-7 -24 7 -23 9 44 79 89 93 189 146 331 176 38 7 210 6 223 -3z m-113 -672
c729 -41 1174 -197 1367 -477 46 -67 103 -196 137 -311 l31 -104 0 -549 c0
-302 -3 -548 -7 -546 -5 2 -69 33 -143 70 -562 275 -1324 408 -2344 408 -191
0 -227 2 -223 14 3 8 160 352 348 765 l342 751 156 -6 c86 -2 237 -9 336 -15z
m4024 -729 c188 -413 345 -758 348 -765 4 -13 -28 -15 -223 -15 -1020 0 -1782
-133 -2344 -408 -74 -37 -138 -68 -142 -70 -5 -2 -8 244 -8 546 l0 549 31 104
c34 115 91 244 137 311 155 225 465 367 957 437 240 34 342 42 856 59 l46 2
342 -750z m-4878 258 c-5 -13 -247 -419 -539 -904 l-530 -880 30 -40 c16 -21
32 -42 37 -47 4 -4 70 9 147 28 399 99 844 166 1384 207 216 16 1016 16 1260
0 102 -7 284 -22 405 -33 268 -25 242 -25 510 0 121 11 303 26 405 33 244 16
1044 16 1260 0 540 -41 985 -108 1384 -207 77 -19 143 -32 147 -28 5 5 21 26
37 47 l30 40 -530 880 c-292 485 -534 891 -539 904 -8 20 -6 22 19 21 15 0 49
-6 75 -12 l49 -12 577 -950 c317 -522 580 -956 585 -964 8 -12 -12 -13 -135
-8 -500 23 -1391 61 -2049 87 -421 17 -946 39 -1168 49 -383 16 -421 16 -805
0 -221 -10 -746 -32 -1167 -49 -658 -26 -1549 -64 -2049 -87 -123 -5 -143 -4
-135 8 5 8 268 442 585 964 l577 950 49 12 c26 6 60 12 75 12 25 1 27 -1 19
-21z m-476 -1058 c-4 -6 5 -31 19 -55 l26 -44 -91 -162 c-99 -174 -97 -168
-48 -228 l19 -23 173 21 c645 80 1163 107 1572 82 308 -19 365 -30 140 -27
-257 4 -719 -10 -956 -29 -374 -29 -813 -94 -1123 -165 -71 -17 -131 -29 -132
-27 -3 3 396 667 402 667 3 0 2 -5 -1 -10z m6058 -330 c107 -179 194 -326 193
-327 -1 -2 -61 10 -132 27 -310 71 -749 136 -1123 165 -237 19 -699 33 -956
29 -225 -3 -168 8 140 27 409 25 927 -2 1572 -82 l173 -21 19 23 c49 60 51 54
-48 228 l-91 162 26 44 c14 25 22 50 18 57 -5 9 -4 10 4 3 6 -5 98 -156 205
-335z m-5293 220 c615 -27 1115 -101 1475 -219 73 -24 58 -25 -71 -6 -202 30
-417 46 -699 52 -393 8 -748 -12 -1247 -71 -104 -12 -188 -19 -188 -15 0 6
102 190 137 247 13 21 18 22 186 22 94 0 278 -5 407 -10z m4977 -124 c40 -71
73 -132 73 -135 0 -4 -84 3 -187 15 -720 85 -1266 96 -1793 38 -80 -9 -179
-22 -220 -29 -41 -7 -76 -12 -78 -10 -1 1 36 15 84 29 469 147 1120 225 1828
222 l220 -1 73 -129z"/>
<path d="M6863 19724 c-46 -36 -83 -69 -83 -73 0 -4 112 -149 249 -322 136
-173 247 -315 246 -317 -1 -1 -203 72 -449 163 l-448 165 -94 -72 c-51 -40
-92 -78 -90 -84 4 -12 717 -918 744 -946 16 -16 22 -13 104 50 48 37 87 70 87
74 1 4 -109 145 -243 315 -134 169 -242 309 -241 310 1 2 199 -69 440 -157
364 -133 440 -157 454 -147 108 79 179 142 173 152 -22 38 -749 954 -757 954
-5 0 -47 -29 -92 -65z"/>
<path d="M20776 19539 c-3 -8 -32 -195 -65 -417 l-60 -403 -152 -177 c-84 -97
-160 -186 -170 -197 -17 -20 -16 -22 73 -99 65 -57 95 -76 105 -70 7 5 85 92
172 193 l159 184 394 119 c216 65 399 120 406 123 8 3 -30 42 -95 99 l-108 93
-263 -89 c-145 -50 -265 -88 -267 -86 -2 1 19 126 46 277 27 151 46 278 42
281 -11 10 -174 151 -195 168 -15 12 -18 13 -22 1z"/>
<path d="M5821 18831 l-114 -122 26 -367 c14 -201 25 -367 24 -368 -1 -1 -90
81 -197 182 -107 101 -197 183 -200 182 -3 -2 -43 -42 -88 -89 l-83 -87 433
-408 c238 -225 442 -416 452 -424 18 -14 25 -9 102 75 l84 90 -135 130 -135
130 -7 144 c-6 138 -5 143 13 137 10 -3 158 -37 327 -77 l309 -71 106 113 c59
61 108 115 110 118 1 4 -195 42 -435 86 -241 43 -439 79 -440 80 -2 1 -10 145
-18 321 -9 175 -16 325 -18 333 -1 8 -53 -41 -116 -108z"/>
<path d="M21589 18343 c-456 -392 -513 -462 -512 -622 0 -96 25 -166 92 -264
120 -174 267 -277 404 -285 115 -7 206 36 377 180 88 74 506 433 534 459 18
16 16 20 -60 108 -43 50 -82 91 -86 91 -4 0 -125 -101 -268 -224 -406 -352
-426 -366 -501 -366 -117 0 -242 134 -243 260 -1 103 4 109 522 554 149 129
170 151 160 165 -31 39 -142 166 -148 169 -4 1 -126 -100 -271 -225z"/>
<path d="M4697 17540 c-152 -193 -278 -355 -280 -360 -1 -5 214 -181 478 -390
454 -359 481 -379 497 -362 9 9 141 174 293 367 l276 350 -28 23 c-117 95
-134 105 -147 91 -8 -8 -102 -126 -211 -264 -108 -137 -200 -251 -204 -253 -5
-1 -65 43 -135 98 l-128 101 28 37 c16 20 98 125 183 232 85 107 158 200 163
207 6 8 -14 30 -68 72 -42 34 -80 61 -85 61 -4 0 -92 -106 -194 -235 -103
-129 -190 -235 -194 -235 -5 0 -54 36 -110 81 l-102 80 49 62 c27 34 119 151
205 259 87 109 157 200 157 202 0 4 -156 126 -162 126 -2 0 -129 -158 -281
-350z"/>
<path d="M22374 17223 c-191 -197 -390 -401 -441 -453 l-92 -95 69 -110 c38
-60 73 -111 78 -113 7 -2 798 241 892 274 8 3 -1 -12 -21 -33 -19 -21 -150
-162 -289 -313 -139 -151 -269 -292 -288 -312 l-35 -37 69 -110 c38 -61 72
-111 76 -111 10 0 1189 398 1194 403 8 8 -120 207 -133 207 -6 0 -168 -57
-360 -126 -191 -70 -372 -135 -401 -145 l-54 -19 58 63 c32 34 166 176 298
315 133 139 242 256 244 260 2 6 -137 234 -151 249 -3 2 -190 -54 -416 -125
-226 -71 -411 -129 -411 -128 0 2 135 137 300 302 165 164 299 303 298 309 -5
17 -123 204 -129 205 -3 0 -163 -161 -355 -357z"/>
<path d="M4206 16867 c-34 -53 -476 -830 -474 -832 16 -13 167 -95 175 -95 6
0 50 70 99 155 l88 154 55 -31 c31 -18 231 -132 445 -255 214 -122 391 -222
392 -220 16 16 121 214 116 218 -4 3 -203 117 -442 254 -239 137 -436 249
-438 251 -2 1 37 73 87 160 50 87 89 159 88 160 -1 1 -41 25 -90 53 l-87 50
-14 -22z"/>
<path d="M3585 15741 l-54 -110 152 -79 c359 -187 934 -482 939 -482 12 0 120
212 112 220 -12 10 -1079 560 -1088 560 -3 0 -30 -49 -61 -109z"/>
<path d="M23170 15689 c-344 -21 -630 -38 -637 -38 -7 -1 12 -52 45 -121 l56
-121 100 8 c56 4 123 8 150 8 l50 0 97 -210 c54 -115 98 -217 98 -225 1 -8
-45 -61 -101 -117 l-102 -102 38 -83 c21 -46 45 -100 54 -120 8 -21 18 -38 22
-38 12 0 910 949 910 961 0 6 -23 63 -51 125 -48 104 -54 114 -78 113 -14 -1
-307 -19 -651 -40z m295 -369 c-93 -93 -172 -166 -175 -162 -14 16 -132 283
-127 288 3 4 358 37 452 43 13 1 -37 -56 -150 -169z"/>
<path d="M4235 14705 c-60 -157 -115 -285 -121 -285 -7 0 -205 75 -440 166
-236 91 -445 172 -465 179 l-37 13 -41 -107 c-45 -118 -47 -127 -28 -134 6 -3
239 -93 517 -200 278 -107 528 -204 556 -215 l51 -21 151 392 c83 216 154 399
157 408 5 14 -15 24 -180 86 -5 2 -59 -125 -120 -282z"/>
<path d="M23676 14595 c-319 -105 -581 -196 -583 -202 -3 -9 54 -202 62 -211
2 -2 168 51 370 118 203 66 371 119 375 118 5 -2 -126 -163 -290 -358 l-297
-354 38 -115 c21 -63 41 -116 43 -118 4 -5 1156 375 1165 383 9 8 -63 214 -74
214 -6 0 -180 -56 -387 -124 -208 -68 -374 -118 -371 -112 4 6 142 170 306
365 l299 354 -27 91 c-14 50 -32 103 -38 117 l-12 25 -579 -191z"/>
<path d="M3238 14110 c-232 -42 -396 -206 -459 -459 -31 -124 -25 -281 16
-370 77 -169 210 -278 421 -344 216 -68 402 -54 550 41 169 109 274 320 274
547 0 190 -76 336 -233 445 -150 106 -409 170 -569 140z m228 -270 c171 -44
279 -120 329 -232 24 -54 27 -70 23 -137 -6 -99 -36 -167 -99 -226 -93 -87
-198 -111 -350 -80 -136 27 -224 69 -295 139 -77 77 -99 134 -92 240 10 151
96 266 228 307 49 15 176 9 256 -11z"/>
<path d="M24035 13359 c-245 -60 -421 -222 -471 -435 -22 -95 -14 -272 16
-369 32 -101 101 -231 165 -308 88 -107 64 -103 337 -53 131 23 240 44 242 47
8 8 -90 524 -99 524 -41 0 -188 -31 -191 -40 -3 -6 6 -70 19 -141 13 -71 23
-130 22 -132 -1 -1 -37 -9 -79 -16 l-77 -13 -39 46 c-80 93 -129 233 -115 330
9 65 59 164 102 202 85 74 238 123 388 124 87 0 107 -3 155 -26 102 -48 157
-114 186 -221 36 -137 1 -256 -97 -323 l-37 -26 41 -107 c22 -59 43 -111 47
-116 13 -14 98 35 151 87 97 95 135 209 126 376 -10 191 -62 323 -171 439 -75
79 -161 129 -271 157 -84 21 -250 19 -350 -6z"/>
<path d="M2793 12706 c-59 -19 -104 -49 -151 -100 -48 -52 -68 -95 -88 -191
-23 -110 -84 -579 -76 -586 5 -4 926 -129 1202 -162 12 -2 19 24 32 118 11 74
14 122 8 125 -6 3 -108 19 -227 34 -120 15 -220 29 -221 31 -2 2 4 59 13 127
23 163 23 319 2 376 -57 149 -180 231 -362 238 -59 3 -104 -1 -132 -10z m203
-267 c65 -31 89 -77 88 -169 0 -41 -6 -119 -13 -173 -13 -92 -15 -98 -35 -93
-11 2 -85 12 -163 22 -78 9 -146 20 -151 23 -6 4 -4 47 4 106 27 197 48 251
112 285 48 25 106 25 158 -1z"/>
<path d="M24277 11971 c-318 -42 -578 -78 -579 -81 -1 -3 4 -58 12 -122 11
-95 16 -118 29 -118 20 -1 1205 152 1209 155 3 3 -10 118 -24 208 -5 34 -8 37
-37 36 -18 -1 -292 -36 -610 -78z"/>
<path d="M10910 3032 c-87 -23 -146 -59 -213 -131 -126 -137 -188 -356 -173
-617 11 -203 68 -362 170 -471 69 -74 139 -117 227 -138 243 -57 462 46 568
267 66 139 76 195 75 418 0 183 -2 200 -28 285 -15 49 -39 112 -54 139 -37 68
-140 176 -200 209 -102 55 -249 71 -372 39z m261 -248 c118 -59 172 -193 172
-429 0 -187 -32 -294 -112 -378 -66 -71 -145 -96 -237 -77 -114 24 -197 128
-230 290 -22 113 -15 305 15 402 60 190 231 273 392 192z"/>
<path d="M16992 3039 c-205 -40 -357 -224 -407 -494 -23 -120 -16 -326 14
-440 32 -121 91 -234 160 -302 191 -192 515 -189 757 6 l59 47 3 272 2 272
-235 0 -235 0 0 -110 0 -109 123 -3 122 -3 3 -80 c3 -77 1 -82 -25 -107 -40
-38 -115 -75 -178 -88 -106 -22 -208 20 -274 111 -103 142 -115 510 -21 664
29 47 91 102 134 120 51 21 159 22 207 2 51 -21 105 -81 128 -141 15 -39 23
-50 38 -48 10 2 57 12 106 23 101 24 102 27 66 126 -43 114 -112 199 -199 243
-86 44 -238 61 -348 39z"/>
<path d="M9568 3025 c-5 -5 -8 -309 -8 -677 l0 -668 110 0 110 0 0 255 0 255
133 0 c146 0 232 12 287 40 86 44 158 154 181 275 14 72 6 211 -16 282 -33
110 -123 202 -217 223 -62 13 -569 26 -580 15z m441 -235 c101 -14 151 -75
151 -183 0 -68 -33 -134 -80 -162 -29 -17 -57 -21 -167 -23 l-133 -4 0 191 0
191 83 0 c45 0 111 -5 146 -10z"/>
<path d="M12660 2355 l0 -676 108 3 107 3 0 670 0 670 -107 3 -108 3 0 -676z"/>
<path d="M12980 3020 c0 -5 56 -306 125 -668 69 -363 125 -662 125 -666 0 -4
55 -5 122 -4 l122 3 105 492 c58 271 107 491 109 489 2 -2 46 -204 98 -448 51
-243 99 -465 105 -491 l11 -48 117 3 116 3 127 650 c70 358 127 660 128 673 0
21 -3 22 -104 22 -58 0 -107 -3 -109 -7 -3 -5 -40 -209 -83 -455 -43 -247 -81
-448 -84 -448 -3 0 -45 199 -94 443 -49 243 -91 448 -94 455 -3 9 -38 12 -128
12 -107 0 -124 -2 -132 -17 -5 -10 -51 -216 -103 -458 -51 -242 -96 -431 -98
-420 -2 11 -39 216 -80 455 l-77 435 -112 3 c-72 2 -112 -1 -112 -8z"/>
<path d="M14730 3004 c-19 -50 -410 -1302 -410 -1313 0 -7 37 -11 113 -11
l114 0 45 153 44 152 216 3 217 2 36 -117 c20 -65 41 -134 48 -153 l13 -35
118 -3 118 -3 -8 23 c-62 200 -416 1289 -424 1306 -9 21 -15 22 -120 22 -110
0 -111 0 -120 -26z m196 -549 l71 -235 -143 0 c-79 0 -144 3 -144 7 0 18 134
463 139 463 3 0 38 -106 77 -235z"/>
<path d="M15520 2355 l0 -675 100 0 100 0 1 438 0 437 220 -438 219 -438 108
3 107 3 0 670 0 670 -100 0 -100 0 -3 -445 -2 -444 -223 444 -222 445 -102 3
-103 3 0 -676z"/>
<path d="M17775 3018 c-3 -7 -4 -310 -3 -673 l3 -660 108 -3 107 -3 0 676 0
675 -105 0 c-75 0 -107 -4 -110 -12z"/>
<path d="M11750 2345 l0 -665 380 0 380 0 0 115 0 115 -270 0 -270 0 0 550 0
550 -110 0 -110 0 0 -665z"/>
</g>
</svg>
